<?xml version="1.0" encoding="utf-8"?>
<!-- Generator: Adobe Illustrator 25.0.1, SVG Export Plug-In . SVG Version: 6.00 Build 0)  -->
<svg version="1.1" xmlns="http://www.w3.org/2000/svg" xmlns:xlink="http://www.w3.org/1999/xlink" x="0px" y="0px"
	 viewBox="0 0 142.99 90.53" style="enable-background:new 0 0 142.99 90.53;" xml:space="preserve">
<style type="text/css">
	.st0{fill:#FFFFFF;}
	.st1{fill:none;stroke:#000000;stroke-width:4.607;stroke-miterlimit:10;}
	.st2{fill:none;stroke:#000000;stroke-width:5;stroke-miterlimit:10;}
</style>
<g id="kd">
	<g>
		<path d="M64.19,57.43l-4.63-7.61l-2.84,2.69v4.17c0,1.01-0.27,1.79-0.8,2.33c-0.53,0.54-1.14,0.82-1.83,0.82
			c-0.81,0-1.44-0.27-1.9-0.81c-0.46-0.54-0.69-1.33-0.69-2.38V34.27c0-1.17,0.22-2.05,0.67-2.66c0.45-0.61,1.09-0.91,1.92-0.91
			c0.81,0,1.45,0.28,1.92,0.83s0.71,1.36,0.71,2.44v12.72l5.9-6.19c0.73-0.77,1.29-1.29,1.67-1.58c0.38-0.28,0.85-0.42,1.4-0.42
			c0.65,0,1.2,0.21,1.63,0.62c0.44,0.42,0.65,0.94,0.65,1.57c0,0.77-0.71,1.79-2.13,3.07l-2.79,2.55l5.38,8.45
			c0.4,0.63,0.68,1.1,0.85,1.43c0.17,0.33,0.26,0.64,0.26,0.93c0,0.83-0.23,1.49-0.68,1.97c-0.46,0.48-1.05,0.72-1.8,0.72
			c-0.64,0-1.13-0.17-1.48-0.52S64.77,58.34,64.19,57.43z"/>
		<path d="M86.55,56.83v-0.52c-0.7,0.81-1.4,1.46-2.08,1.97c-0.69,0.51-1.43,0.89-2.23,1.15c-0.8,0.26-1.68,0.39-2.62,0.39
			c-1.26,0-2.42-0.27-3.49-0.8c-1.07-0.53-2-1.29-2.78-2.28s-1.37-2.15-1.78-3.48c-0.4-1.33-0.61-2.77-0.61-4.32
			c0-3.28,0.8-5.83,2.4-7.67c1.6-1.83,3.71-2.75,6.32-2.75c1.51,0,2.79,0.26,3.82,0.78s2.05,1.32,3.04,2.39v-7.74
			c0-1.08,0.21-1.89,0.64-2.44s1.04-0.83,1.83-0.83c0.79,0,1.41,0.25,1.83,0.76c0.43,0.51,0.64,1.25,0.64,2.24v23.13
			c0,1-0.23,1.75-0.69,2.25c-0.46,0.5-1.06,0.75-1.79,0.75c-0.72,0-1.31-0.26-1.78-0.78C86.78,58.53,86.55,57.79,86.55,56.83z
			 M76.23,49.13c0,1.42,0.22,2.63,0.66,3.63s1.05,1.75,1.82,2.26s1.61,0.76,2.52,0.76c0.92,0,1.76-0.24,2.53-0.72
			c0.76-0.48,1.37-1.22,1.83-2.21c0.45-0.99,0.68-2.23,0.68-3.72c0-1.4-0.23-2.6-0.68-3.6c-0.45-1.01-1.07-1.77-1.84-2.31
			c-0.78-0.53-1.62-0.8-2.55-0.8c-0.96,0-1.82,0.27-2.57,0.82c-0.76,0.54-1.34,1.33-1.76,2.34C76.44,46.6,76.23,47.78,76.23,49.13z"
			/>
	</g>
</g>
<g id="rect">
	<path class="st1" d="M96.41,71.2H46.58c-6.6,0-12-5.4-12-12V31.33c0-6.6,5.4-12,12-12h49.82c6.6,0,12,5.4,12,12V59.2
		C108.41,65.8,103.01,71.2,96.41,71.2z"/>
</g>
</svg>
